<svg id="visual" viewBox="0 0 900 600" width="900" height="600" xmlns="http://www.w3.org/2000/svg" xmlns:xlink="http://www.w3.org/1999/xlink" version="1.1"><g fill="#008080"><circle r="60" cx="41" cy="323"></circle><circle r="4" cx="472" cy="279"></circle><circle r="22" cx="93" cy="463"></circle><circle r="46" cx="579" cy="495"></circle><circle r="43" cx="258" cy="147"></circle><circle r="14" cx="871" cy="111"></circle><circle r="9" cx="371" cy="596"></circle><circle r="26" cx="856" cy="259"></circle><circle r="7" cx="711" cy="505"></circle><circle r="50" cx="721" cy="93"></circle><circle r="57" cx="472" cy="37"></circle><circle r="27" cx="47" cy="178"></circle><circle r="4" cx="721" cy="287"></circle><circle r="14" cx="878" cy="418"></circle><circle r="56" cx="311" cy="32"></circle><circle r="9" cx="329" cy="274"></circle><circle r="34" cx="597" cy="293"></circle><circle r="14" cx="409" cy="472"></circle><circle r="17" cx="587" cy="164"></circle><circle r="14" cx="165" cy="322"></circle><circle r="50" cx="419" cy="170"></circle><circle r="6" cx="187" cy="29"></circle><circle r="16" cx="15" cy="578"></circle><circle r="29" cx="54" cy="52"></circle><circle r="17" cx="236" cy="542"></circle><circle r="8" cx="624" cy="14"></circle><circle r="44" cx="832" cy="555"></circle><circle r="13" cx="275" cy="398"></circle><circle r="6" cx="500" cy="587"></circle></g></svg>