<svg id="visual" viewBox="0 0 900 600" width="900" height="600" xmlns="http://www.w3.org/2000/svg" xmlns:xlink="http://www.w3.org/1999/xlink" version="1.1"><rect x="0" y="0" width="900" height="600" fill="#001220"></rect><path d="M0 233L13.7 231.5C27.3 230 54.7 227 82 239C109.3 251 136.7 278 163.8 284.7C191 291.3 218 277.7 245.2 274.3C272.3 271 299.7 278 327 272.5C354.3 267 381.7 249 409 238C436.3 227 463.7 223 491 230.7C518.3 238.3 545.7 257.7 573 266C600.3 274.3 627.7 271.7 654.8 275.5C682 279.3 709 289.7 736.2 288.8C763.3 288 790.7 276 818 277.2C845.3 278.3 872.7 292.7 886.3 299.8L900 307L900 0L886.3 0C872.7 0 845.3 0 818 0C790.7 0 763.3 0 736.2 0C709 0 682 0 654.8 0C627.7 0 600.3 0 573 0C545.7 0 518.3 0 491 0C463.7 0 436.3 0 409 0C381.7 0 354.3 0 327 0C299.7 0 272.3 0 245.2 0C218 0 191 0 163.8 0C136.7 0 109.3 0 82 0C54.7 0 27.3 0 13.7 0L0 0Z" fill="#f4d884"></path><path d="M0 245L13.7 242.7C27.3 240.3 54.7 235.7 82 232.8C109.3 230 136.7 229 163.8 230.8C191 232.7 218 237.3 245.2 229C272.3 220.7 299.7 199.3 327 192.3C354.3 185.3 381.7 192.7 409 197.3C436.3 202 463.7 204 491 202.7C518.3 201.3 545.7 196.7 573 199.5C600.3 202.3 627.7 212.7 654.8 214.8C682 217 709 211 736.2 202.8C763.3 194.7 790.7 184.3 818 187.7C845.3 191 872.7 208 886.3 216.5L900 225L900 0L886.3 0C872.7 0 845.3 0 818 0C790.7 0 763.3 0 736.2 0C709 0 682 0 654.8 0C627.7 0 600.3 0 573 0C545.7 0 518.3 0 491 0C463.7 0 436.3 0 409 0C381.7 0 354.3 0 327 0C299.7 0 272.3 0 245.2 0C218 0 191 0 163.8 0C136.7 0 109.3 0 82 0C54.7 0 27.3 0 13.7 0L0 0Z" fill="#c0cb7b"></path><path d="M0 187L13.7 184.5C27.3 182 54.7 177 82 170.5C109.3 164 136.7 156 163.8 150.7C191 145.3 218 142.7 245.2 152.8C272.3 163 299.7 186 327 194.3C354.3 202.7 381.7 196.3 409 197C436.3 197.7 463.7 205.3 491 206.3C518.3 207.3 545.7 201.7 573 190.2C600.3 178.7 627.7 161.3 654.8 152.5C682 143.7 709 143.3 736.2 144.2C763.3 145 790.7 147 818 152C845.3 157 872.7 165 886.3 169L900 173L900 0L886.3 0C872.7 0 845.3 0 818 0C790.7 0 763.3 0 736.2 0C709 0 682 0 654.8 0C627.7 0 600.3 0 573 0C545.7 0 518.3 0 491 0C463.7 0 436.3 0 409 0C381.7 0 354.3 0 327 0C299.7 0 272.3 0 245.2 0C218 0 191 0 163.8 0C136.7 0 109.3 0 82 0C54.7 0 27.3 0 13.7 0L0 0Z" fill="#8fbb7b"></path><path d="M0 151L13.7 145.7C27.3 140.3 54.7 129.7 82 128.3C109.3 127 136.7 135 163.8 133.5C191 132 218 121 245.2 120.8C272.3 120.7 299.7 131.3 327 131.3C354.3 131.3 381.7 120.7 409 113.5C436.3 106.3 463.7 102.7 491 103.7C518.3 104.7 545.7 110.3 573 115.7C600.3 121 627.7 126 654.8 133.5C682 141 709 151 736.2 149.8C763.3 148.7 790.7 136.3 818 130.5C845.3 124.7 872.7 125.3 886.3 125.7L900 126L900 0L886.3 0C872.7 0 845.3 0 818 0C790.7 0 763.3 0 736.2 0C709 0 682 0 654.8 0C627.7 0 600.3 0 573 0C545.7 0 518.3 0 491 0C463.7 0 436.3 0 409 0C381.7 0 354.3 0 327 0C299.7 0 272.3 0 245.2 0C218 0 191 0 163.8 0C136.7 0 109.3 0 82 0C54.7 0 27.3 0 13.7 0L0 0Z" fill="#62a97e"></path><path d="M0 103L13.7 102C27.3 101 54.7 99 82 97.3C109.3 95.7 136.7 94.3 163.8 96.8C191 99.3 218 105.7 245.2 107.5C272.3 109.3 299.7 106.7 327 98.3C354.3 90 381.7 76 409 73.2C436.3 70.3 463.7 78.7 491 78.8C518.3 79 545.7 71 573 72.7C600.3 74.3 627.7 85.7 654.8 89.3C682 93 709 89 736.2 83.3C763.3 77.7 790.7 70.3 818 69.8C845.3 69.3 872.7 75.7 886.3 78.8L900 82L900 0L886.3 0C872.7 0 845.3 0 818 0C790.7 0 763.3 0 736.2 0C709 0 682 0 654.8 0C627.7 0 600.3 0 573 0C545.7 0 518.3 0 491 0C463.7 0 436.3 0 409 0C381.7 0 354.3 0 327 0C299.7 0 272.3 0 245.2 0C218 0 191 0 163.8 0C136.7 0 109.3 0 82 0C54.7 0 27.3 0 13.7 0L0 0Z" fill="#369581"></path><path d="M0 64L13.7 62.5C27.3 61 54.7 58 82 56.8C109.3 55.7 136.7 56.3 163.8 58C191 59.7 218 62.3 245.2 61.3C272.3 60.3 299.7 55.7 327 56.8C354.3 58 381.7 65 409 63.2C436.3 61.3 463.7 50.7 491 47.8C518.3 45 545.7 50 573 54.5C600.3 59 627.7 63 654.8 60.2C682 57.3 709 47.7 736.2 46.2C763.3 44.7 790.7 51.3 818 54.2C845.3 57 872.7 56 886.3 55.5L900 55L900 0L886.3 0C872.7 0 845.3 0 818 0C790.7 0 763.3 0 736.2 0C709 0 682 0 654.8 0C627.7 0 600.3 0 573 0C545.7 0 518.3 0 491 0C463.7 0 436.3 0 409 0C381.7 0 354.3 0 327 0C299.7 0 272.3 0 245.2 0C218 0 191 0 163.8 0C136.7 0 109.3 0 82 0C54.7 0 27.3 0 13.7 0L0 0Z" fill="#008080"></path></svg>