<svg id="visual" viewBox="0 0 900 600" width="900" height="600" xmlns="http://www.w3.org/2000/svg" xmlns:xlink="http://www.w3.org/1999/xlink" version="1.1"><rect x="0" y="0" width="900" height="600" fill="#001220"></rect><path d="M0 240L13.7 244.2C27.3 248.3 54.7 256.7 82 260.5C109.3 264.3 136.7 263.7 163.8 258.5C191 253.3 218 243.7 245.2 237.8C272.3 232 299.7 230 327 233C354.3 236 381.7 244 409 250C436.3 256 463.7 260 491 261.5C518.3 263 545.7 262 573 252.8C600.3 243.7 627.7 226.3 654.8 224.3C682 222.3 709 235.7 736.2 250.5C763.3 265.3 790.7 281.7 818 277.7C845.3 273.7 872.7 249.3 886.3 237.2L900 225L900 0L886.3 0C872.7 0 845.3 0 818 0C790.7 0 763.3 0 736.2 0C709 0 682 0 654.8 0C627.7 0 600.3 0 573 0C545.7 0 518.3 0 491 0C463.7 0 436.3 0 409 0C381.7 0 354.3 0 327 0C299.7 0 272.3 0 245.2 0C218 0 191 0 163.8 0C136.7 0 109.3 0 82 0C54.7 0 27.3 0 13.7 0L0 0Z" fill="#f4d884"></path><path d="M0 180L13.7 178.5C27.3 177 54.7 174 82 172.3C109.3 170.7 136.7 170.3 163.8 178C191 185.7 218 201.3 245.2 211.5C272.3 221.7 299.7 226.3 327 219.7C354.3 213 381.7 195 409 189.8C436.3 184.7 463.7 192.3 491 198.7C518.3 205 545.7 210 573 206C600.3 202 627.7 189 654.8 193.2C682 197.3 709 218.7 736.2 225.5C763.3 232.3 790.7 224.7 818 221.7C845.3 218.7 872.7 220.3 886.3 221.2L900 222L900 0L886.3 0C872.7 0 845.3 0 818 0C790.7 0 763.3 0 736.2 0C709 0 682 0 654.8 0C627.7 0 600.3 0 573 0C545.7 0 518.3 0 491 0C463.7 0 436.3 0 409 0C381.7 0 354.3 0 327 0C299.7 0 272.3 0 245.2 0C218 0 191 0 163.8 0C136.7 0 109.3 0 82 0C54.7 0 27.3 0 13.7 0L0 0Z" fill="#c0cb7b"></path><path d="M0 172L13.7 175.5C27.3 179 54.7 186 82 184.2C109.3 182.3 136.7 171.7 163.8 165.8C191 160 218 159 245.2 163.7C272.3 168.3 299.7 178.7 327 180.8C354.3 183 381.7 177 409 170.8C436.3 164.7 463.7 158.3 491 165.2C518.3 172 545.7 192 573 200.5C600.3 209 627.7 206 654.8 198C682 190 709 177 736.2 173C763.3 169 790.7 174 818 177.5C845.3 181 872.7 183 886.3 184L900 185L900 0L886.3 0C872.7 0 845.3 0 818 0C790.7 0 763.3 0 736.2 0C709 0 682 0 654.8 0C627.7 0 600.3 0 573 0C545.7 0 518.3 0 491 0C463.7 0 436.3 0 409 0C381.7 0 354.3 0 327 0C299.7 0 272.3 0 245.2 0C218 0 191 0 163.8 0C136.7 0 109.3 0 82 0C54.7 0 27.3 0 13.7 0L0 0Z" fill="#8fbb7b"></path><path d="M0 124L13.7 123C27.3 122 54.7 120 82 118.5C109.3 117 136.7 116 163.8 118.3C191 120.7 218 126.3 245.2 132.5C272.3 138.7 299.7 145.3 327 144.2C354.3 143 381.7 134 409 127.2C436.3 120.3 463.7 115.7 491 114C518.3 112.3 545.7 113.7 573 120.5C600.3 127.3 627.7 139.7 654.8 137.8C682 136 709 120 736.2 115.7C763.3 111.3 790.7 118.7 818 128.5C845.3 138.3 872.7 150.7 886.3 156.8L900 163L900 0L886.3 0C872.7 0 845.3 0 818 0C790.7 0 763.3 0 736.2 0C709 0 682 0 654.8 0C627.7 0 600.3 0 573 0C545.7 0 518.3 0 491 0C463.7 0 436.3 0 409 0C381.7 0 354.3 0 327 0C299.7 0 272.3 0 245.2 0C218 0 191 0 163.8 0C136.7 0 109.3 0 82 0C54.7 0 27.3 0 13.7 0L0 0Z" fill="#62a97e"></path><path d="M0 89L13.7 92C27.3 95 54.7 101 82 100.8C109.3 100.7 136.7 94.3 163.8 91.5C191 88.7 218 89.3 245.2 92.3C272.3 95.3 299.7 100.7 327 98.8C354.3 97 381.7 88 409 90.2C436.3 92.3 463.7 105.7 491 112.7C518.3 119.7 545.7 120.3 573 120.5C600.3 120.7 627.7 120.3 654.8 115.3C682 110.3 709 100.7 736.2 97.2C763.3 93.7 790.7 96.3 818 95C845.3 93.7 872.7 88.3 886.3 85.7L900 83L900 0L886.3 0C872.7 0 845.3 0 818 0C790.7 0 763.3 0 736.2 0C709 0 682 0 654.8 0C627.7 0 600.3 0 573 0C545.7 0 518.3 0 491 0C463.7 0 436.3 0 409 0C381.7 0 354.3 0 327 0C299.7 0 272.3 0 245.2 0C218 0 191 0 163.8 0C136.7 0 109.3 0 82 0C54.7 0 27.3 0 13.7 0L0 0Z" fill="#369581"></path><path d="M0 54L13.7 54.7C27.3 55.3 54.7 56.7 82 56.2C109.3 55.7 136.7 53.3 163.8 48C191 42.7 218 34.3 245.2 34.7C272.3 35 299.7 44 327 48.7C354.3 53.3 381.7 53.7 409 50C436.3 46.3 463.7 38.7 491 38.3C518.3 38 545.7 45 573 52C600.3 59 627.7 66 654.8 63.2C682 60.3 709 47.7 736.2 43.3C763.3 39 790.7 43 818 45.3C845.3 47.7 872.7 48.3 886.3 48.7L900 49L900 0L886.3 0C872.7 0 845.3 0 818 0C790.7 0 763.3 0 736.2 0C709 0 682 0 654.8 0C627.7 0 600.3 0 573 0C545.7 0 518.3 0 491 0C463.7 0 436.3 0 409 0C381.7 0 354.3 0 327 0C299.7 0 272.3 0 245.2 0C218 0 191 0 163.8 0C136.7 0 109.3 0 82 0C54.7 0 27.3 0 13.7 0L0 0Z" fill="#008080"></path></svg>